<?xml version="1.0" encoding="UTF-8"?>
<svg xmlns="http://www.w3.org/2000/svg" version="1.1" width="225" height="225" style="background-color:transparent;">
  <path d="M0 0 C74.25 0 148.5 0 225 0 C225 74.25 225 148.5 225 225 C150.75 225 76.5 225 0 225 C0 150.75 0 76.5 0 0 Z " fill="#43A047" transform="translate(0,0)"/>
  <path d="M0 0 C74.25 0 148.5 0 225 0 C225 74.25 225 148.5 225 225 C150.75 225 76.5 225 0 225 C0 150.75 0 76.5 0 0 Z M43 33 C42.3915625 33.46535156 41.783125 33.93070313 41.15625 34.41015625 C22.64264947 48.68833401 11.63908125 74.25798422 7.53125 96.54296875 C7.22194636 99.03887732 7.0833508 101.48558419 7 104 C6.97421875 104.62712891 6.9484375 105.25425781 6.921875 105.90039062 C5.90727619 133.37065341 13.66247929 160.08942797 32 181 C32.59039062 181.73347656 33.18078125 182.46695313 33.7890625 183.22265625 C49.46528125 202.13417972 74.24121139 214.58505882 98.4375 217.625 C126.12614164 219.93953042 154.23484213 214.4734693 176.5 196.9375 C178.00989393 195.6363941 179.51044639 194.32434373 181 193 C181.73089844 192.41089844 182.46179688 191.82179687 183.21484375 191.21484375 C203.62998584 174.31584212 215.39183446 148.03017841 218 122 C218.69472169 111.52796122 218.11976037 101.29022915 216 91 C215.81695312 90.04222656 215.63390625 89.08445312 215.4453125 88.09765625 C209.99133019 63.01607096 193.65645653 38.88904935 172.171875 24.80126953 C131.38835853 -0.74023659 79.56064109 0.76570144 43 33 Z " fill="#FEFEFE" transform="translate(0,0)"/>
  <path d="M0 0 C6.93 0 13.86 0 21 0 C21 27.39 21 54.78 21 83 C37.83 83 54.66 83 72 83 C72 89.27 72 95.54 72 102 C48.24 102 24.48 102 0 102 C0 68.34 0 34.68 0 0 Z " fill="#FCFDFC" transform="translate(80,62)"/>
</svg>
